<svg width="30" height="12" viewBox="0 0 30 12" fill="none" xmlns="http://www.w3.org/2000/svg">
<path d="M10.11 0.697008L6.195 11.122H4.215L0.285 0.697008H2.115L5.205 9.36701L8.31 0.697008H10.11ZM13.25 2.07701V5.13701H16.85V6.53201H13.25V9.72701H17.3V11.122H11.54V0.682009H17.3V2.07701H13.25ZM26.1413 0.697008V2.09201H23.3663V11.122H21.6563V2.09201H18.8663V0.697008H26.1413ZM28.563 11.227C28.253 11.227 27.993 11.122 27.783 10.912C27.573 10.702 27.468 10.442 27.468 10.132C27.468 9.82201 27.573 9.56201 27.783 9.35201C27.993 9.14201 28.253 9.03701 28.563 9.03701C28.863 9.03701 29.118 9.14201 29.328 9.35201C29.538 9.56201 29.643 9.82201 29.643 10.132C29.643 10.442 29.538 10.702 29.328 10.912C29.118 11.122 28.863 11.227 28.563 11.227Z" fill="#084236"/>
</svg>
